G04 EAGLE Gerber RS-274X export*
G75*
%MOMM*%
%FSLAX34Y34*%
%LPD*%
%INBottom Copper*%
%IPPOS*%
%AMOC8*
5,1,8,0,0,1.08239X$1,22.5*%
G01*
G04 Define Apertures*
%ADD10C,1.346200*%
%ADD11C,0.250000*%
%ADD12C,0.756400*%
D10*
X20000Y314800D03*
X20000Y294800D03*
X0Y314800D03*
X0Y294800D03*
X-20000Y314800D03*
X-20000Y294800D03*
X20000Y264000D03*
X20000Y244000D03*
X0Y264000D03*
X0Y244000D03*
X-20000Y264000D03*
X-20000Y244000D03*
D11*
X30000Y262500D02*
X115000Y177500D01*
X30000Y262500D02*
X30000Y292500D01*
X20000Y292500D01*
X20000Y294800D01*
X-55000Y-132500D02*
X-35000Y-152500D01*
X-17500Y-170000D01*
X-55000Y-132500D02*
X-92500Y-132500D01*
X-162500Y-62500D01*
X-162500Y60000D01*
X115000Y177500D02*
X175000Y117500D01*
X192500Y117500D01*
X200000Y110000D01*
X200000Y-152500D01*
X-35000Y-152500D01*
D12*
X115000Y177500D03*
X-17500Y-170000D03*
X-162500Y60000D03*
D11*
X-87500Y172500D02*
X-27500Y232500D01*
X-15000Y232500D01*
X-10000Y237500D01*
X-10000Y277500D01*
X-2500Y277500D01*
X10000Y290000D01*
X10000Y312500D01*
X20000Y312500D01*
X20000Y314800D01*
X-37500Y-122500D02*
X-17500Y-142500D01*
X-37500Y-122500D02*
X-90000Y-122500D01*
X-152500Y-60000D01*
X-152500Y107500D01*
X77500Y152500D02*
X125000Y105000D01*
X77500Y152500D02*
X-107500Y152500D01*
X-152500Y107500D01*
D12*
X-87500Y172500D03*
X-17500Y-142500D03*
X-152500Y107500D03*
X125000Y105000D03*
D11*
X37500Y-122500D02*
X17500Y-142500D01*
X37500Y-122500D02*
X90000Y-122500D01*
X190000Y-22500D01*
X190000Y107500D01*
X150000Y107500D01*
X30000Y227500D01*
X15000Y227500D01*
D12*
X17500Y-142500D03*
X15000Y227500D03*
D11*
X-2500Y232500D02*
X-62500Y172500D01*
X-2500Y232500D02*
X5000Y232500D01*
X10000Y237500D01*
X10000Y262500D01*
X20000Y262500D01*
X20000Y264000D01*
D12*
X-62500Y172500D03*
D11*
X35000Y242500D02*
X160000Y117500D01*
X35000Y242500D02*
X20000Y242500D01*
X20000Y244000D01*
D12*
X160000Y117500D03*
D11*
X-107500Y190000D02*
X-265000Y32500D01*
X-107500Y190000D02*
X-107500Y237500D01*
X-75000Y237500D01*
X-30000Y282500D01*
X-30000Y312500D01*
X-20000Y312500D01*
X-20000Y314800D01*
D12*
X-265000Y32500D03*
D11*
X82500Y162500D02*
X180000Y65000D01*
X82500Y162500D02*
X-90000Y162500D01*
X-97500Y170000D01*
X-97500Y227500D01*
X-72500Y227500D01*
X-10000Y290000D01*
X-10000Y312500D01*
X0Y312500D01*
X0Y314800D01*
D12*
X180000Y65000D03*
M02*
