G04 EAGLE Gerber RS-274X export*
G75*
%MOMM*%
%FSLAX34Y34*%
%LPD*%
%INSolderpaste Top*%
%IPPOS*%
%AMOC8*
5,1,8,0,0,1.08239X$1,22.5*%
G01*
G04 Define Apertures*
%ADD10R,0.500000X0.750000*%
%ADD11R,1.200000X0.900000*%
G36*
X-277350Y-42050D02*
X-292450Y-42050D01*
X-292450Y-26950D01*
X-286350Y-26950D01*
X-286350Y-33950D01*
X-277350Y-33950D01*
X-277350Y-42050D01*
G37*
G36*
X-286350Y26950D02*
X-292450Y26950D01*
X-292450Y42050D01*
X-277350Y42050D01*
X-277350Y33950D01*
X-286350Y33950D01*
X-286350Y26950D01*
G37*
G36*
X286350Y-26950D02*
X292450Y-26950D01*
X292450Y-42050D01*
X277350Y-42050D01*
X277350Y-33950D01*
X286350Y-33950D01*
X286350Y-26950D01*
G37*
G36*
X277350Y42050D02*
X292450Y42050D01*
X292450Y26950D01*
X286350Y26950D01*
X286350Y33950D01*
X277350Y33950D01*
X277350Y42050D01*
G37*
D10*
X-9500Y-178350D03*
X0Y-178350D03*
X9500Y-178350D03*
X9500Y-151850D03*
X0Y-151850D03*
X-9500Y-151850D03*
X-152500Y69300D03*
X-143000Y69300D03*
X-133500Y69300D03*
X-133500Y95800D03*
X-143000Y95800D03*
X-152500Y95800D03*
X133500Y69300D03*
X143000Y69300D03*
X152500Y69300D03*
X152500Y95800D03*
X143000Y95800D03*
X133500Y95800D03*
D11*
X-266400Y21000D03*
X-266400Y-21000D03*
X266400Y-21000D03*
X266400Y21000D03*
M02*
