M48
;GenerationSoftware,Autodesk,EAGLE,9.7.0*%
;CreationDate,2026-07-04T17:43:45Z*%
FMAT,2
ICI,OFF
METRIC,TZ,000.000
T3C0.350
T2C0.838
T1C3.500
%
G90
M71
T1
X20000Y20000
X-20000Y20000
X20000Y-20000
X-20000Y-20000
T2
X2000Y31480
X2000Y29480
X0Y31480
X0Y29480
X-2000Y31480
X-2000Y29480
X2000Y26400
X2000Y24400
X0Y26400
X0Y24400
X-2000Y26400
X-2000Y24400
T3
X-16210Y7400
X-1938Y-17796
X-15153Y10572
X-1938Y-15153
X13391Y10572
X1938Y-15153
X-13391Y10572
X-26606Y3172
M30