M48
;GenerationSoftware,Autodesk,EAGLE,9.7.0*%
;CreationDate,2026-07-13T00:22:58Z*%
FMAT,2
ICI,OFF
METRIC,TZ,000.000
T3C0.350
T2C0.838
T1C3.500
%
G90
M71
T1
X20000Y20000
X-20000Y20000
X20000Y-20000
X-20000Y-20000
T2
X2000Y31480
X2000Y29480
X0Y31480
X0Y29480
X-2000Y31480
X-2000Y29480
X2000Y26400
X2000Y24400
X0Y26400
X0Y24400
X-2000Y26400
X-2000Y24400
T3
X11500Y17750
X-1750Y-17000
X-16250Y6000
X-8750Y17250
X-1750Y-14250
X-15250Y10750
X12500Y10500
X1750Y-14250
X1500Y22750
X-6250Y17250
X16000Y11750
X-26500Y3250
X18000Y6500
M30