G04 EAGLE Gerber RS-274X export*
G75*
%MOMM*%
%FSLAX34Y34*%
%LPD*%
%INBottom Copper*%
%IPPOS*%
%AMOC8*
5,1,8,0,0,1.08239X$1,22.5*%
G01*
G04 Define Apertures*
%ADD10C,1.346200*%
%ADD11C,0.152400*%
%ADD12C,0.756400*%
D10*
X20000Y314800D03*
X20000Y294800D03*
X0Y314800D03*
X0Y294800D03*
X-20000Y314800D03*
X-20000Y294800D03*
X20000Y264000D03*
X20000Y244000D03*
X0Y264000D03*
X0Y244000D03*
X-20000Y264000D03*
X-20000Y244000D03*
D11*
X-162104Y140960D02*
X-162104Y74004D01*
X-162104Y140960D02*
X-19382Y283682D01*
X8810Y283682D01*
X19382Y294254D01*
X20000Y294800D01*
X-19382Y-177962D02*
X-40526Y-177962D01*
X-162104Y-56384D01*
X-162104Y74004D01*
D12*
X-162104Y74004D03*
X-19382Y-177962D03*
D11*
X-151532Y105720D02*
X-151532Y146246D01*
X-17620Y280158D01*
X19382Y280158D01*
X29954Y290730D01*
X29954Y304826D01*
X21144Y313636D01*
X20000Y314800D01*
X-19382Y-151532D02*
X-61670Y-151532D01*
X-151532Y-61670D01*
X-151532Y105720D01*
X133912Y105720D02*
X133912Y165628D01*
X19382Y280158D01*
D12*
X-151532Y105720D03*
X-19382Y-151532D03*
X133912Y105720D03*
D11*
X61670Y-151532D02*
X19382Y-151532D01*
X61670Y-151532D02*
X144484Y-68718D01*
X144484Y84576D01*
X0Y229060D01*
X0Y244000D01*
D12*
X19382Y-151532D03*
D11*
X-133912Y105720D02*
X-133912Y144484D01*
X-24668Y253728D01*
X10572Y253728D01*
X19382Y262538D01*
X20000Y264000D01*
D12*
X-133912Y105720D03*
D11*
X-266062Y47574D02*
X-266062Y31716D01*
X-266062Y47574D02*
X-29954Y283682D01*
X-29954Y304826D01*
X-21144Y313636D01*
X-20000Y314800D01*
D12*
X-266062Y31716D03*
M02*
