G04 EAGLE Gerber RS-274X export*
G75*
%MOMM*%
%FSLAX34Y34*%
%LPD*%
%INSoldermask Top*%
%IPPOS*%
%AMOC8*
5,1,8,0,0,1.08239X$1,22.5*%
G01*
G04 Define Apertures*
%ADD10C,3.703200*%
%ADD11C,1.549400*%
%ADD12R,0.703200X0.953200*%
%ADD13R,1.403200X1.103200*%
G36*
X-276350Y-43050D02*
X-293450Y-43050D01*
X-293450Y-25950D01*
X-285350Y-25950D01*
X-285350Y-32950D01*
X-276350Y-32950D01*
X-276350Y-43050D01*
G37*
G36*
X-285350Y25950D02*
X-293450Y25950D01*
X-293450Y43050D01*
X-276350Y43050D01*
X-276350Y32950D01*
X-285350Y32950D01*
X-285350Y25950D01*
G37*
G36*
X285350Y-25950D02*
X293450Y-25950D01*
X293450Y-43050D01*
X276350Y-43050D01*
X276350Y-32950D01*
X285350Y-32950D01*
X285350Y-25950D01*
G37*
G36*
X276350Y43050D02*
X293450Y43050D01*
X293450Y25950D01*
X285350Y25950D01*
X285350Y32950D01*
X276350Y32950D01*
X276350Y43050D01*
G37*
D10*
X200000Y200000D03*
X-200000Y200000D03*
X200000Y-200000D03*
X-200000Y-200000D03*
D11*
X20000Y314800D03*
X20000Y294800D03*
X0Y314800D03*
X0Y294800D03*
X-20000Y314800D03*
X-20000Y294800D03*
X20000Y264000D03*
X20000Y244000D03*
X0Y264000D03*
X0Y244000D03*
X-20000Y264000D03*
X-20000Y244000D03*
D12*
X-9500Y-178350D03*
X0Y-178350D03*
X9500Y-178350D03*
X9500Y-151850D03*
X0Y-151850D03*
X-9500Y-151850D03*
X-152500Y69300D03*
X-143000Y69300D03*
X-133500Y69300D03*
X-133500Y95800D03*
X-143000Y95800D03*
X-152500Y95800D03*
X133500Y69300D03*
X143000Y69300D03*
X152500Y69300D03*
X152500Y95800D03*
X143000Y95800D03*
X133500Y95800D03*
D13*
X-266400Y21000D03*
X-266400Y-21000D03*
X266400Y-21000D03*
X266400Y21000D03*
M02*
